<svg width="20" height="12" viewBox="0 0 20 12" fill="none" xmlns="http://www.w3.org/2000/svg">
<path d="M2.50004 0.833496C1.57504 0.833496 0.833374 1.57516 0.833374 2.50016V9.16683H2.50004C2.50004 9.82987 2.76343 10.4658 3.23227 10.9346C3.70111 11.4034 4.337 11.6668 5.00004 11.6668C5.66308 11.6668 6.29897 11.4034 6.76781 10.9346C7.23665 10.4658 7.50004 9.82987 7.50004 9.16683H12.5C12.5 9.82987 12.7634 10.4658 13.2323 10.9346C13.7011 11.4034 14.337 11.6668 15 11.6668C15.6631 11.6668 16.299 11.4034 16.7678 10.9346C17.2366 10.4658 17.5 9.82987 17.5 9.16683H19.1667V5.8335C19.1667 4.9085 18.425 4.16683 17.5 4.16683L15 0.833496H2.50004ZM12.5 2.0835H14.5834L16.2167 4.16683H12.5V2.0835ZM5.00004 7.91683C5.33156 7.91683 5.6495 8.04853 5.88392 8.28295C6.11834 8.51737 6.25004 8.83531 6.25004 9.16683C6.25004 9.49835 6.11834 9.81629 5.88392 10.0507C5.6495 10.2851 5.33156 10.4168 5.00004 10.4168C4.66852 10.4168 4.35058 10.2851 4.11616 10.0507C3.88174 9.81629 3.75004 9.49835 3.75004 9.16683C3.75004 8.83531 3.88174 8.51737 4.11616 8.28295C4.35058 8.04853 4.66852 7.91683 5.00004 7.91683ZM15 7.91683C15.3316 7.91683 15.6495 8.04853 15.8839 8.28295C16.1183 8.51737 16.25 8.83531 16.25 9.16683C16.25 9.49835 16.1183 9.81629 15.8839 10.0507C15.6495 10.2851 15.3316 10.4168 15 10.4168C14.6685 10.4168 14.3506 10.2851 14.1162 10.0507C13.8817 9.81629 13.75 9.49835 13.75 9.16683C13.75 8.83531 13.8817 8.51737 14.1162 8.28295C14.3506 8.04853 14.6685 7.91683 15 7.91683Z" fill="white"/>
</svg>
