<svg width="143" height="37" viewBox="0 0 143 37" fill="none" xmlns="http://www.w3.org/2000/svg">
<path d="M125 26.5411C124.408 27.0393 123.742 27.4429 123.026 27.7375C122.385 27.9872 121.703 28.1147 121.016 28.1132C120.317 28.1238 119.623 27.9826 118.984 27.6993C118.389 27.4337 117.854 27.0485 117.414 26.5674C116.965 26.0731 116.618 25.4949 116.393 24.866C116.146 24.1849 116.023 23.4653 116.029 22.741C116.026 21.6984 116.261 20.6689 116.716 19.7306C117.168 18.7899 117.786 17.9387 118.541 17.218C119.302 16.4936 120.186 15.911 121.152 15.4974C122.112 15.0786 123.149 14.8627 124.196 14.8633C125.439 14.8633 126.449 15.1209 127.228 15.6362C127.981 16.1191 128.535 16.8574 128.788 17.7157L126.453 19.1132C126.3 18.5082 125.933 17.9788 125.421 17.6224C124.883 17.2692 124.249 17.0896 123.605 17.1079C122.962 17.1053 122.329 17.2606 121.76 17.5602C121.182 17.8627 120.664 18.2682 120.231 18.7567C119.78 19.2596 119.424 19.8401 119.18 20.47C118.926 21.1047 118.796 21.7822 118.797 22.4658C118.793 22.9222 118.863 23.3763 119.003 23.8107C119.128 24.2063 119.328 24.5743 119.592 24.8947C119.845 25.2014 120.164 25.4468 120.525 25.6126C120.913 25.7892 121.334 25.8775 121.76 25.871C123.017 25.871 124.28 25.276 125.548 24.0858L125.766 23.1646H123.114L123.548 21.3076H128.434L126.902 28.0247H124.665L125 26.5411Z" fill="#99CA3C"/>
<path d="M134.852 28.1042C134.095 28.1189 133.345 27.9652 132.655 27.6543C132.037 27.3729 131.486 26.9653 131.035 26.4578C130.594 25.952 130.257 25.364 130.044 24.7277C129.82 24.0698 129.707 23.3791 129.709 22.6841C129.713 21.6793 129.944 20.6884 130.386 19.7861C130.837 18.8498 131.452 18.002 132.203 17.2831C132.971 16.5479 133.862 15.9534 134.835 15.5266C135.807 15.0878 136.861 14.8618 137.927 14.8638C138.681 14.8487 139.429 15.0059 140.114 15.3232C140.725 15.6102 141.268 16.0247 141.705 16.5389C142.132 17.0507 142.458 17.6385 142.667 18.2714C142.889 18.9299 143.001 19.6202 143 20.315C142.994 21.3097 142.767 22.2906 142.335 23.1866C141.892 24.1235 141.282 24.9718 140.535 25.6896C139.776 26.4183 138.896 27.0094 137.934 27.4365C136.966 27.8774 135.915 28.1051 134.852 28.1042ZM135.383 25.8595C136.072 25.8673 136.752 25.6958 137.355 25.3618C137.943 25.0381 138.465 24.6081 138.896 24.0935C139.325 23.5814 139.664 22.9994 139.896 22.373C140.126 21.7764 140.246 21.1433 140.25 20.504C140.252 20.0656 140.192 19.629 140.073 19.207C139.966 18.8162 139.783 18.4502 139.535 18.1302C139.288 17.8207 138.976 17.5691 138.621 17.3932C138.223 17.2024 137.786 17.1081 137.345 17.118C136.655 17.1088 135.974 17.2734 135.364 17.5966C134.772 17.9148 134.245 18.3428 133.813 18.8577C133.383 19.3697 133.044 19.9517 132.811 20.5782C132.581 21.1814 132.461 21.8208 132.456 22.4663C132.454 22.9017 132.514 23.3351 132.634 23.7537C132.746 24.1449 132.932 24.5106 133.184 24.8306C133.431 25.1428 133.743 25.3975 134.098 25.5772C134.498 25.7727 134.938 25.8695 135.383 25.8595Z" fill="#99CA3C"/>
<path d="M98.8759 25.6009C99.2026 24.8006 99.6435 24.0518 100.185 23.3779C100.805 22.6171 101.518 21.937 102.307 21.3534C103.311 20.6137 104.383 19.9726 105.509 19.439C106.334 19.0418 107.171 18.6605 108.019 18.2952C108.807 17.9627 109.57 17.5749 110.302 17.1346C110.919 16.7706 111.475 16.3119 111.949 15.7753C112.367 15.2922 112.594 14.6723 112.585 14.0332C112.579 13.6923 112.504 13.3561 112.364 13.0451C112.225 12.7341 112.023 12.4548 111.772 12.2242C111.229 11.6833 110.392 11.4129 109.259 11.4129C108.629 11.4078 108.002 11.5031 107.402 11.6953C106.848 11.8715 106.314 12.1049 105.808 12.3917C105.354 12.6473 104.923 12.9411 104.519 13.2699C104.14 13.581 103.801 13.8562 103.528 14.1003L102.006 11.9753C102.369 11.6851 102.746 11.4143 103.138 11.1641C103.739 10.774 104.366 10.4247 105.014 10.1183C105.81 9.74208 106.639 9.43931 107.491 9.21377C108.448 8.95429 109.435 8.82549 110.427 8.8309C111.249 8.81572 112.068 8.93288 112.853 9.17788C113.497 9.38564 114.096 9.71012 114.622 10.1351C115.091 10.5141 115.466 10.9965 115.718 11.5445C115.966 12.0917 116.092 12.686 116.089 13.2866C116.11 14.2114 115.861 15.1224 115.371 15.907C114.893 16.6526 114.296 17.314 113.602 17.8644C112.913 18.4137 112.166 18.8863 111.374 19.2739C110.577 19.6615 109.875 19.9878 109.269 20.2526C108.726 20.4967 108.119 20.7894 107.448 21.1308C106.765 21.48 106.104 21.8683 105.466 22.2938C104.829 22.7118 104.236 23.1929 103.695 23.7296C103.187 24.2208 102.781 24.807 102.499 25.455H113.746L113.145 28.1064H98.0695C98.2757 27.2524 98.5453 26.4149 98.8759 25.6009Z" fill="#1376BC"/>
<path d="M67.3765 28.1042L71.7485 8.83113H80.1454C80.827 8.82019 81.5015 8.96937 82.1149 9.26665C82.677 9.54467 83.1781 9.93189 83.5889 10.4057C83.9996 10.8847 84.3148 11.4378 84.5174 12.0353C84.7281 12.6467 84.8357 13.2888 84.8357 13.9354C84.8338 14.7028 84.686 15.4629 84.4002 16.1752C84.1151 16.9009 83.7196 17.5781 83.2276 18.1829C82.7308 18.7961 82.1452 19.3316 81.4903 19.7719C80.838 20.2217 80.1077 20.5463 79.3366 20.729L82.3637 28.1042H79.4204L76.5847 21.1837H71.5474L69.9824 28.1042H67.3765ZM77.8577 19.0109C78.4349 19.0122 79.0029 18.8673 79.5089 18.5897C80.0266 18.3117 80.4876 17.9391 80.8681 17.4913C81.2585 17.0336 81.572 16.5156 81.7966 15.9574C82.0237 15.4013 82.1407 14.8065 82.1412 14.2058C82.1434 13.7859 82.0754 13.3685 81.9402 12.971C81.8162 12.603 81.63 12.259 81.3898 11.954C81.164 11.6702 80.8832 11.4349 80.5642 11.2624C80.2399 11.0886 79.8769 10.9997 79.5089 11.004H73.8615L72.038 19.0109H77.8577Z" fill="#1376BC"/>
<path d="M89.0646 21.5809L85.6115 15.0073H88.0739L90.5362 19.8244L90.6415 20.2264L90.9646 19.8244L95.5926 15.0073H98.0813L91.6586 21.5809L95.138 28.1041H92.654L90.1917 23.3182L90.0313 22.9401L89.737 23.3182L85.1089 28.1041H82.6202L89.0646 21.5809Z" fill="#1376BC"/>
<path d="M68.1351 31.0879H70.126L70.0518 31.4421H68.4581L68.2403 32.4591H69.6259L69.5541 32.7917H68.1685L67.9293 33.8757H69.5637L69.4871 34.2299H67.4554L68.1351 31.0879Z" fill="black"/>
<path d="M73.3402 32.6816L72.5529 31.0879H72.9956L73.6106 32.3969L74.7784 31.0879H75.2163L73.7614 32.6816L74.5128 34.2299H74.0844L73.4957 32.964L72.371 34.2299H71.9283L73.3402 32.6816Z" fill="black"/>
<path d="M77.8292 31.0881H79.0784C79.1831 31.0855 79.2868 31.1093 79.3799 31.1575C79.4665 31.2041 79.543 31.2676 79.6048 31.3441C79.6685 31.4228 79.7165 31.513 79.746 31.6098C79.7794 31.7093 79.7963 31.8135 79.7963 31.9185C79.7952 32.0651 79.7642 32.2101 79.7053 32.3444C79.646 32.483 79.5653 32.6114 79.466 32.7249C79.3648 32.8367 79.2439 32.9292 79.1095 32.9977C78.9755 33.0663 78.8269 33.1015 78.6764 33.1006H77.8029L77.5636 34.2301H77.1664L77.8292 31.0881ZM78.7242 32.7464C78.8128 32.7463 78.9 32.7241 78.9779 32.6818C79.0591 32.6364 79.1313 32.5763 79.1908 32.5047C79.2521 32.4276 79.3006 32.3412 79.3344 32.2487C79.3696 32.1546 79.3875 32.0548 79.3871 31.9543C79.3928 31.8219 79.3522 31.6916 79.2722 31.5858C79.2377 31.5401 79.1928 31.5032 79.1412 31.4782C79.0896 31.4533 79.0328 31.4409 78.9755 31.4423H78.1523L77.8747 32.7464H78.7242Z" fill="black"/>
<path d="M82.0365 34.2301L82.7041 31.0881H83.9868C84.0915 31.0855 84.1952 31.1093 84.2883 31.1575C84.3757 31.2041 84.4529 31.2675 84.5156 31.3441C84.5785 31.4233 84.6263 31.5134 84.6568 31.6098C84.6882 31.7097 84.7044 31.8137 84.7047 31.9185C84.7049 32.0436 84.6822 32.1677 84.6377 32.2846C84.5955 32.4022 84.5358 32.5127 84.4606 32.6124C84.384 32.7109 84.2938 32.7979 84.1926 32.8709C84.0947 32.944 83.9833 32.9969 83.8647 33.0264L84.329 34.2229H83.8767L83.4436 33.1078H82.673L82.4337 34.2373L82.0365 34.2301ZM83.6374 32.7464C83.7264 32.7466 83.8138 32.7235 83.8911 32.6794C83.971 32.6331 84.0416 32.5722 84.0993 32.4999C84.1573 32.4272 84.2049 32.3467 84.2404 32.2606C84.2756 32.1698 84.2935 32.0733 84.2931 31.9759C84.294 31.9076 84.2835 31.8397 84.262 31.7749C84.2433 31.7149 84.215 31.6583 84.1782 31.6074C84.1437 31.562 84.1006 31.5238 84.0514 31.4949C84.0026 31.467 83.9472 31.4529 83.8911 31.4542H83.0272L82.7472 32.7584L83.6374 32.7464Z" fill="black"/>
<path d="M87.7198 31.0879H89.7132L89.6366 31.4421H88.0429L87.8251 32.4591H89.213L89.1413 32.7917H87.7557L87.5164 33.8757H89.1484L89.0742 34.2299H87.0426L87.7198 31.0879Z" fill="black"/>
<path d="M92.8141 34.2611C92.5991 34.2634 92.3856 34.2253 92.1847 34.1486C92.0011 34.0763 91.8348 33.9663 91.6965 33.8256L91.9598 33.4881C91.997 33.5453 92.043 33.5961 92.0962 33.6389C92.1612 33.693 92.2328 33.7389 92.3091 33.7753C92.3967 33.8161 92.4881 33.8482 92.5819 33.871C92.6875 33.8975 92.7961 33.9104 92.905 33.9093C93.1042 33.9214 93.3021 33.8694 93.4697 33.7609C93.5362 33.7149 93.59 33.6528 93.6259 33.5805C93.6619 33.5081 93.679 33.4277 93.6755 33.347C93.6769 33.282 93.6594 33.218 93.6253 33.1627C93.5868 33.1075 93.537 33.061 93.4793 33.0263C93.4046 32.9813 93.3241 32.9466 93.24 32.9234C93.1491 32.8923 93.0462 32.8612 92.9289 32.8301C92.8194 32.8 92.7116 32.764 92.6059 32.7224C92.5203 32.689 92.4397 32.6439 92.3666 32.5884C92.3049 32.5388 92.2544 32.4769 92.2182 32.4065C92.184 32.3314 92.1669 32.2497 92.1679 32.1672C92.1652 32.014 92.1982 31.8622 92.2643 31.7239C92.3303 31.5856 92.4276 31.4646 92.5484 31.3703C92.6724 31.2743 92.8126 31.2014 92.9624 31.155C93.125 31.1036 93.2945 31.0778 93.465 31.0784C93.6453 31.0747 93.8245 31.1081 93.9914 31.1765C94.135 31.2373 94.2652 31.326 94.3743 31.4374L94.1206 31.7604C94.0925 31.7149 94.0569 31.6745 94.0153 31.6408C93.9631 31.5997 93.906 31.5652 93.8454 31.5379C93.7772 31.5052 93.7059 31.4795 93.6325 31.4613C93.5502 31.4417 93.4658 31.4321 93.3812 31.4326C93.1703 31.4145 92.9603 31.4759 92.7925 31.6049C92.7321 31.6599 92.6842 31.7273 92.652 31.8024C92.6198 31.8775 92.604 31.9587 92.6059 32.0404C92.6042 32.0984 92.6191 32.1557 92.6489 32.2055C92.6808 32.2551 92.7244 32.2962 92.7758 32.3252C92.8417 32.3636 92.9114 32.3949 92.984 32.4185C93.0798 32.4507 93.1772 32.4779 93.2759 32.4998C93.4019 32.5333 93.5168 32.5692 93.6205 32.6075C93.715 32.6429 93.8037 32.6921 93.8837 32.7535C93.9539 32.8061 94.0112 32.874 94.0512 32.9521C94.0936 33.0383 94.1142 33.1337 94.1111 33.2297C94.1153 33.3905 94.0799 33.5499 94.0082 33.6939C93.9409 33.8231 93.8442 33.9346 93.7258 34.0194C93.6011 34.1072 93.4617 34.172 93.3142 34.2108C93.1505 34.25 92.9823 34.2669 92.8141 34.2611Z" fill="black"/>
<path d="M97.6312 34.261C97.4162 34.2634 97.2027 34.2252 97.0018 34.1486C96.8157 34.0772 96.6468 33.9671 96.5065 33.8255L96.7673 33.4881C96.8061 33.5447 96.8529 33.5955 96.9061 33.6389C96.9708 33.6936 97.0424 33.7394 97.1191 33.7753C97.2065 33.8165 97.2979 33.8486 97.3919 33.871C97.4975 33.8975 97.6061 33.9104 97.7149 33.9093C97.9142 33.9213 98.1121 33.8693 98.2797 33.7609C98.3462 33.7149 98.3999 33.6528 98.4359 33.5804C98.4719 33.508 98.4889 33.4277 98.4855 33.3469C98.4868 33.2819 98.4694 33.218 98.4352 33.1627C98.3962 33.1079 98.3465 33.0615 98.2892 33.0263C98.2143 32.9816 98.1339 32.947 98.0499 32.9234C97.9566 32.8923 97.8537 32.8611 97.7389 32.83C97.6293 32.7999 97.5215 32.764 97.4158 32.7224C97.33 32.6894 97.2494 32.6443 97.1765 32.5883C97.1149 32.5388 97.0643 32.4768 97.0282 32.4065C96.994 32.3314 96.9768 32.2497 96.9779 32.1672C96.9752 32.0139 97.0082 31.8622 97.0742 31.7239C97.1402 31.5856 97.2375 31.4645 97.3584 31.3703C97.482 31.2738 97.6224 31.2008 97.7724 31.1549C97.9349 31.1036 98.1044 31.0778 98.2749 31.0784C98.4552 31.0749 98.6344 31.1083 98.8014 31.1765C98.9446 31.2367 99.074 31.3254 99.1818 31.4373L98.9425 31.7604C98.9142 31.7143 98.8777 31.6738 98.8349 31.6407C98.7835 31.5997 98.7272 31.5651 98.6673 31.5378C98.5991 31.5052 98.5278 31.4795 98.4544 31.4612C98.3721 31.4417 98.2877 31.4321 98.2031 31.4325C97.9922 31.4144 97.7822 31.4759 97.6144 31.6048C97.554 31.6599 97.5061 31.7272 97.4739 31.8023C97.4417 31.8775 97.426 31.9586 97.4278 32.0404C97.4261 32.0984 97.441 32.1557 97.4709 32.2055C97.5021 32.2556 97.5458 32.2969 97.5977 32.3251C97.6629 32.3631 97.7319 32.3944 97.8035 32.4184C97.8872 32.4472 97.9853 32.4735 98.0978 32.4998C98.2103 32.5261 98.3371 32.5692 98.4424 32.6075C98.5369 32.6429 98.6256 32.692 98.7056 32.7535C98.7758 32.8061 98.8331 32.874 98.8731 32.9521C98.9155 33.0383 98.9361 33.1336 98.933 33.2297C98.9371 33.3905 98.9018 33.5499 98.8301 33.6939C98.7628 33.8231 98.6661 33.9346 98.5477 34.0193C98.423 34.1072 98.2836 34.172 98.1361 34.2108C97.9708 34.2504 97.801 34.2673 97.6312 34.261Z" fill="black"/>
<path d="M105.44 31.0882H106.481C106.657 31.0846 106.833 31.1154 106.997 31.1791C107.136 31.2363 107.26 31.3248 107.359 31.4375C107.455 31.5498 107.527 31.6811 107.569 31.8228C107.619 31.9775 107.643 32.1391 107.641 32.3014C107.644 32.5645 107.597 32.8257 107.505 33.072C107.417 33.2986 107.287 33.5065 107.122 33.6846C106.957 33.8565 106.759 33.994 106.54 34.089C106.314 34.1869 106.069 34.2366 105.822 34.235H104.781L105.44 31.0882ZM105.887 33.876C106.081 33.8793 106.273 33.8367 106.447 33.7516C106.609 33.6712 106.752 33.5579 106.868 33.4189C106.986 33.2772 107.077 33.115 107.136 32.9403C107.199 32.7554 107.23 32.5613 107.23 32.366C107.231 32.2412 107.214 32.1168 107.177 31.9975C107.144 31.8919 107.091 31.7936 107.021 31.708C106.952 31.6249 106.864 31.5593 106.765 31.5165C106.652 31.4696 106.529 31.4468 106.406 31.4495H105.765L105.246 33.8832L105.887 33.876Z" fill="black"/>
<path d="M110.719 31.0879H112.71L112.635 31.4325H111.042L110.824 32.4495H112.209L112.14 32.7821H110.755L110.515 33.8662H112.15L112.073 34.2203H110.041L110.719 31.0879Z" fill="black"/>
<path d="M115.5 31.0879H115.897L115.303 33.8757H116.955L116.88 34.2299H114.83L115.5 31.0879Z" fill="black"/>
<path d="M120.187 31.0903H120.585L119.917 34.2299H119.517L120.187 31.0903Z" fill="black"/>
<path d="M123.207 31.0879H123.626L124.033 33.7202L125.562 31.0879H125.981L124.1 34.2299H123.763L123.207 31.0879Z" fill="black"/>
<path d="M128.635 31.0879H130.626L130.551 31.4421H128.958L128.74 32.4591H130.126L130.054 32.7917H128.668L128.429 33.8757H130.063L129.987 34.2299H127.955L128.635 31.0879Z" fill="black"/>
<path d="M132.746 34.2301L133.416 31.0881H134.698C134.803 31.0855 134.907 31.1093 135 31.1575C135.087 31.2041 135.163 31.2676 135.225 31.3441C135.289 31.4228 135.336 31.513 135.366 31.6098C135.399 31.7093 135.416 31.8135 135.416 31.9185C135.415 32.0435 135.393 32.1674 135.349 32.2846C135.307 32.4027 135.247 32.5134 135.17 32.6124C135.095 32.7114 135.005 32.7985 134.904 32.8709C134.806 32.9445 134.693 32.9974 134.574 33.0264L135.053 34.2229H134.6L134.155 33.1078H133.385L133.145 34.2373L132.746 34.2301ZM134.349 32.7464C134.433 32.7448 134.516 32.7217 134.588 32.6794C134.669 32.6343 134.74 32.5733 134.797 32.4999C134.856 32.4279 134.905 32.3472 134.94 32.2606C134.974 32.1695 134.992 32.0731 134.993 31.9759C134.993 31.9077 134.982 31.8399 134.962 31.7749C134.942 31.7153 134.914 31.6588 134.878 31.6074C134.843 31.5626 134.8 31.5245 134.751 31.4949C134.701 31.4669 134.645 31.4529 134.588 31.4542H133.727L133.447 32.7584L134.349 32.7464Z" fill="black"/>
<path d="M138.771 33.0741L138.068 31.0879H138.506L139.047 32.7247L140.291 31.0879H140.724L139.166 33.0836L138.927 34.2299H138.527L138.771 33.0741Z" fill="black"/>
<path d="M42.9779 13.689C43.4254 13.7297 43.8777 13.7536 44.3347 13.7536C48.0395 13.7533 51.6097 12.3644 54.3407 9.86103C57.0718 7.35766 58.7654 3.92162 59.0875 0.230839C58.3585 0.115585 57.6216 0.0571808 56.8835 0.0561523C53.2425 0.056066 49.7466 1.48381 47.1467 4.03279C44.5467 6.58176 43.0499 10.0487 42.9779 13.689Z" fill="#8CC63F"/>
<path d="M37.4479 8.17285H37.6872C38.7889 8.17285 39.8456 8.61052 40.6247 9.38959C41.4037 10.1687 41.8414 11.2253 41.8414 12.3271V13.6959H41.6021C40.5003 13.6959 39.4437 13.2582 38.6646 12.4791C37.8856 11.7001 37.4479 10.6434 37.4479 9.54164V8.17285Z" fill="#8CC63F"/>
<path d="M61.7845 12.3704C60.6167 13.6961 50.8294 15.5435 40.8555 15.5124C25.3369 15.4645 17.1075 12.7867 16.033 12.4015V12.3584H0L16.3369 15.8785C16.5469 17.135 16.82 18.3801 17.1553 19.6091H5.07074L18.1269 22.4807C18.6173 23.7425 19.2985 24.9217 20.1466 25.9769L20.4864 26.3789H10.5004L22.786 29.0112C24.0782 30.4159 25.3345 31.5549 26.6435 32.1221C26.6435 32.2369 26.6268 32.3614 26.6268 32.4691C26.6138 33.6431 27.0647 34.7748 27.8816 35.6181C28.6984 36.4615 29.8151 36.9484 30.9889 36.973C32.1627 36.9976 33.2988 36.5579 34.1502 35.7495C35.0017 34.941 35.4996 33.8292 35.5358 32.6557C37.7422 32.6557 40.1376 32.6294 42.3583 32.6031C42.3964 33.7712 42.8918 34.8776 43.7377 35.6841C44.5836 36.4906 45.7124 36.9327 46.881 36.9151C48.0496 36.8975 49.1646 36.4217 49.9859 35.5902C50.8072 34.7586 51.2691 33.6378 51.2721 32.4691C51.2721 32.4068 51.2721 32.3446 51.2721 32.2824C52.8826 31.5143 56.5367 28.4034 58.6329 24.6248C62.5024 17.6182 61.7845 12.3704 61.7845 12.3704Z" fill="#0F6BAC"/>
<path d="M26.5162 0.749823C26.2745 0.51035 25.988 0.32087 25.673 0.192216C25.358 0.0635621 25.0207 -0.0017426 24.6804 3.53506e-05C24.3402 0.0018133 24.0036 0.07064 23.69 0.202579C23.3763 0.334518 23.0918 0.526981 22.8526 0.768967L19.5766 4.08325C19.1509 4.51948 18.8927 5.09189 18.8476 5.69971C18.8024 6.30754 18.9731 6.91181 19.3297 7.40615C19.6862 7.9005 20.2057 8.25322 20.7967 8.40222C21.3877 8.55122 22.0123 8.48695 22.5606 8.22073L27.1073 13.3728C30.9645 13.8912 34.8484 14.1869 38.7396 14.2582L27.0858 3.60226C27.2877 3.12451 27.3414 2.59707 27.2399 2.08841C27.1383 1.57975 26.8862 1.11337 26.5162 0.749823Z" fill="#0F6BAC"/>
</svg>
