<svg width="17" height="15" viewBox="0 0 17 15" fill="none" xmlns="http://www.w3.org/2000/svg">
<path fill-rule="evenodd" clip-rule="evenodd" d="M5.41792 12.5711C6.73901 10.696 9.28692 6.83334 9.28692 4.93368C9.28692 2.36916 7.20797 0 4.64346 0C2.07895 0 0 2.36916 0 4.93368C0 6.83334 2.54791 10.696 3.869 12.5711C4.25113 13.1135 5.03579 13.1135 5.41792 12.5711ZM4.64346 7.25541C5.92572 7.25541 6.96519 6.21593 6.96519 4.93368C6.96519 3.65142 5.92572 2.61195 4.64346 2.61195C3.3612 2.61195 2.32173 3.65142 2.32173 4.93368C2.32173 6.21593 3.3612 7.25541 4.64346 7.25541Z" fill="white"/>
<path d="M5 14C8.5 14.5 15 14.5 15.5 13C16 11.5 9.5 12 9.5 11C9.5 10 11 10 13 10" stroke="white" stroke-linecap="round" stroke-linejoin="round"/>
</svg>
