<svg width="17" height="17" viewBox="0 0 17 17" fill="none" xmlns="http://www.w3.org/2000/svg">
<path d="M2.48 2.375H14.5113L13.6888 1.5H3.18875L2.48 2.375ZM15.9725 2.57625C16.2263 2.87375 16.375 3.25 16.375 3.6875V14.625C16.375 15.0891 16.1906 15.5342 15.8624 15.8624C15.5342 16.1906 15.0891 16.375 14.625 16.375H2.375C1.91087 16.375 1.46575 16.1906 1.13756 15.8624C0.809374 15.5342 0.625 15.0891 0.625 14.625V3.6875C0.625 3.25 0.77375 2.87375 1.0275 2.57625L2.235 1.10625C2.48 0.80875 2.83875 0.625 3.25 0.625H13.75C14.1613 0.625 14.52 0.80875 14.7562 1.10625L15.9725 2.57625ZM3.25 13.75H8.5V11.125H3.25V13.75Z" fill="white"/>
</svg>
