<svg width="60" height="43" viewBox="0 0 60 43" fill="none" xmlns="http://www.w3.org/2000/svg">
<path d="M28.4167 1.75H2.58333C1.15712 1.75 0 2.92578 0 4.375V5.25H31V4.375C31 2.92578 29.8429 1.75 28.4167 1.75ZM0 23.625C0 25.0742 1.15712 26.25 2.58333 26.25H28.4167C29.8429 26.25 31 25.0742 31 23.625V7H0V23.625ZM18.9444 10.9375C18.9444 10.6969 19.1382 10.5 19.375 10.5H27.125C27.3618 10.5 27.5556 10.6969 27.5556 10.9375V11.8125C27.5556 12.0531 27.3618 12.25 27.125 12.25H19.375C19.1382 12.25 18.9444 12.0531 18.9444 11.8125V10.9375ZM18.9444 14.4375C18.9444 14.1969 19.1382 14 19.375 14H27.125C27.3618 14 27.5556 14.1969 27.5556 14.4375V15.3125C27.5556 15.5531 27.3618 15.75 27.125 15.75H19.375C19.1382 15.75 18.9444 15.5531 18.9444 15.3125V14.4375ZM18.9444 17.9375C18.9444 17.6969 19.1382 17.5 19.375 17.5H27.125C27.3618 17.5 27.5556 17.6969 27.5556 17.9375V18.8125C27.5556 19.0531 27.3618 19.25 27.125 19.25H19.375C19.1382 19.25 18.9444 19.0531 18.9444 18.8125V17.9375ZM9.47222 10.5C11.372 10.5 12.9167 12.0695 12.9167 14C12.9167 15.9305 11.372 17.5 9.47222 17.5C7.5724 17.5 6.02778 15.9305 6.02778 14C6.02778 12.0695 7.5724 10.5 9.47222 10.5ZM3.61128 21.6672C4.06337 20.2617 5.36042 19.25 6.88889 19.25H7.33021C7.99219 19.5289 8.71337 19.6875 9.47222 19.6875C10.2311 19.6875 10.9576 19.5289 11.6142 19.25H12.0556C13.584 19.25 14.8811 20.2617 15.3332 21.6672C15.5054 22.2086 15.0533 22.75 14.4936 22.75H4.45087C3.89115 22.75 3.43906 22.2031 3.61128 21.6672Z" fill="#3284FF"/>
<g clip-path="url(#clip0)">
<path d="M40.5941 18C39.1751 18 37.6911 18.917 36.3751 20.625C35.0591 22.333 34.0411 24.907 34.0941 28.313C34.0941 29.939 34.6131 31.743 35.5941 33.25C35.7381 33.472 35.9871 33.605 36.1561 33.813C35.4681 34.644 34.2811 36.219 34.2811 36.219C34.1746 36.3097 34.0883 36.4218 34.0279 36.548C33.9674 36.6742 33.9341 36.8116 33.9301 36.9515C33.9261 37.0914 33.9515 37.2305 34.0046 37.3599C34.0578 37.4894 34.1375 37.6062 34.2386 37.7029C34.3397 37.7996 34.46 37.874 34.5917 37.9213C34.7234 37.9686 34.8635 37.9877 35.0031 37.9775C35.1426 37.9672 35.2784 37.9278 35.4018 37.8617C35.5251 37.7957 35.6332 37.7045 35.7191 37.594C35.7191 37.594 36.9221 35.984 37.5621 35.219C38.3001 35.688 39.1441 36 40.0941 36C41.8021 36 43.4061 35.183 44.7811 34.062C44.9761 33.904 45.0941 33.671 45.2811 33.5C45.7221 33.809 46.2411 34 46.8121 34C47.7711 34 48.5851 33.543 49.2821 33C49.9781 32.457 50.5751 31.803 51.1251 31.156C51.4941 30.722 51.7641 30.362 52.0631 30C52.0261 30.471 51.9961 30.935 52.0001 31.375C52.0021 31.605 52.0121 31.812 52.0941 32.094C52.1341 32.234 52.1701 32.428 52.3441 32.625C52.5181 32.822 52.8721 33 53.1871 33C54.0041 33 54.6121 32.542 55.0621 32.094C55.5121 31.645 55.8731 31.129 56.2821 30.656C57.0961 29.711 57.8801 29 59.0001 29C59.2653 29 59.5197 28.8946 59.7072 28.7071C59.8948 28.5196 60.0001 28.2652 60.0001 28C60.0001 27.7348 59.8948 27.4804 59.7072 27.2929C59.5197 27.1054 59.2653 27 59.0001 27C57.0201 27 55.6901 28.29 54.7811 29.344C54.4991 29.671 54.2871 29.894 54.0631 30.156C54.0651 30.12 54.0601 30.099 54.0631 30.062C54.1011 29.554 54.1631 29.059 54.1251 28.562C54.115 28.2818 54.0512 28.0061 53.9371 27.75C53.7971 27.444 53.3291 27 52.8121 27C52.2711 27 51.9661 27.238 51.7191 27.438C51.4721 27.638 51.2561 27.87 51.0311 28.125C50.5811 28.635 50.1061 29.241 49.5941 29.844C49.0811 30.447 48.5381 31.043 48.0311 31.438C47.5251 31.832 47.1041 32 46.8121 32C46.7461 32 46.7121 31.887 46.6561 31.875C47.1831 31.242 47.8311 30.698 48.2501 30.031C49.1631 28.575 49.7981 27.134 50.0001 25.875C50.1011 25.245 50.1371 24.633 49.8441 24.031C49.5501 23.43 48.7841 23 48.0941 23C46.7491 23 45.6181 23.87 44.8441 25.031C44.0691 26.193 43.5941 27.717 43.5941 29.406C43.5941 30.283 43.8691 31.02 44.1561 31.75C43.9181 31.98 43.7461 32.3 43.5001 32.5C42.3441 33.442 41.1351 34 40.0941 34C39.6411 34 39.2371 33.802 38.8441 33.594C39.3111 32.972 39.3471 33.054 39.8441 32.312C41.8921 29.253 44.0001 25.343 44.0001 21.595C44.0001 21.15 43.9701 20.345 43.5001 19.532C43.0301 18.718 41.9821 18 40.5941 18ZM40.5941 20C41.4061 20 41.5701 20.22 41.7501 20.531C41.9301 20.843 42.0001 21.339 42.0001 21.594C42.0001 24.546 40.1081 28.303 38.1561 31.219C37.7571 31.815 37.7571 31.733 37.3751 32.25C37.3481 32.21 37.3081 32.197 37.2811 32.156C36.5371 31.013 36.0941 29.486 36.0941 28.312C36.0943 28.302 36.0943 28.292 36.0941 28.282C36.0471 25.287 36.9341 23.217 37.9691 21.875C39.0031 20.533 40.3121 20 40.5941 20ZM48.0311 25.031C48.0451 25.105 48.0831 25.237 48.0311 25.562C47.9021 26.366 47.3741 27.675 46.5621 28.969C46.3391 29.324 45.9791 29.589 45.7191 29.938C45.6951 29.73 45.5941 29.634 45.5941 29.406C45.5941 28.096 45.9741 26.913 46.5001 26.125C47.0021 25.371 47.5831 25.06 48.0311 25.031ZM34.0001 40V42H60.0001V40H34.0001Z" fill="#3284FF"/>
</g>
<defs>
<clipPath id="clip0">
<rect width="26" height="26" fill="white" transform="translate(34 17)"/>
</clipPath>
</defs>
</svg>
