<svg width="16" height="16" viewBox="0 0 16 16" fill="none" xmlns="http://www.w3.org/2000/svg">
<path d="M4.05785 0.615234C3.18462 0.615234 2.27139 1.17954 1.46154 2.23062C0.651693 3.2817 0.0252311 4.8657 0.0578465 6.9617C0.0578465 7.96231 0.377231 9.07246 0.980923 9.99985C1.06954 10.1365 1.22277 10.2183 1.32677 10.3463C0.903385 10.8577 0.172923 11.8269 0.172923 11.8269C0.107387 11.8828 0.054299 11.9517 0.017091 12.0294C-0.0201169 12.107 -0.0406165 12.1916 -0.0430825 12.2777C-0.0455485 12.3638 -0.029926 12.4494 0.00277505 12.529C0.0354761 12.6087 0.0845278 12.6806 0.146759 12.7401C0.208991 12.7996 0.283016 12.8454 0.364051 12.8745C0.445086 12.9036 0.531326 12.9154 0.617196 12.909C0.703066 12.9027 0.786655 12.8785 0.862559 12.8378C0.938463 12.7972 1.00499 12.7411 1.05785 12.6731C1.05785 12.6731 1.79815 11.6823 2.192 11.2115C2.64615 11.5002 3.16554 11.6922 3.75015 11.6922C4.80123 11.6922 5.78831 11.1894 6.63446 10.4995C6.75446 10.4023 6.82708 10.2589 6.94215 10.1537C7.21354 10.3438 7.53292 10.4614 7.88431 10.4614C8.47446 10.4614 8.97539 10.1802 9.40431 9.846C9.83262 9.51185 10.2 9.10939 10.5385 8.71123C10.7655 8.44416 10.9317 8.22262 11.1157 7.99985C11.0929 8.2897 11.0745 8.57523 11.0769 8.846C11.0782 8.98754 11.0843 9.11493 11.1348 9.28846C11.1594 9.37462 11.1815 9.494 11.2886 9.61523C11.3957 9.73646 11.6135 9.846 11.8074 9.846C12.3102 9.846 12.6843 9.56416 12.9612 9.28846C13.2382 9.01216 13.4603 8.69462 13.712 8.40354C14.2129 7.822 14.6954 7.38446 15.3846 7.38446C15.5478 7.38446 15.7044 7.31963 15.8198 7.20422C15.9352 7.08882 16 6.93229 16 6.76908C16 6.60587 15.9352 6.44934 15.8198 6.33394C15.7044 6.21853 15.5478 6.1537 15.3846 6.1537C14.1662 6.1537 13.3477 6.94754 12.7883 7.59616C12.6148 7.79739 12.4843 7.93462 12.3465 8.09585C12.3477 8.0737 12.3446 8.06077 12.3465 8.038C12.3698 7.72539 12.408 7.42077 12.3846 7.11493C12.3784 6.94249 12.3391 6.77286 12.2689 6.61523C12.1828 6.42693 11.8948 6.1537 11.5766 6.1537C11.2437 6.1537 11.056 6.30016 10.904 6.42323C10.752 6.54631 10.6191 6.68908 10.4806 6.846C10.2037 7.15985 9.91139 7.53277 9.59631 7.90385C9.28062 8.27493 8.94646 8.6417 8.63446 8.88477C8.32308 9.12723 8.064 9.23062 7.88431 9.23062C7.84369 9.23062 7.82277 9.16108 7.78831 9.1537C8.11262 8.76416 8.51139 8.42939 8.76923 8.01893C9.33108 7.12293 9.72185 6.23616 9.84615 5.46139C9.90831 5.0737 9.93046 4.69708 9.75015 4.32662C9.56923 3.95677 9.09785 3.69216 8.67323 3.69216C7.84554 3.69216 7.14954 4.22754 6.67323 4.942C6.19631 5.65708 5.904 6.59493 5.904 7.63431C5.904 8.174 6.07323 8.62754 6.24985 9.07677C6.10339 9.21831 5.99754 9.41523 5.84615 9.53831C5.13477 10.118 4.39077 10.4614 3.75015 10.4614C3.47139 10.4614 3.22277 10.3395 2.98092 10.2115C3.26831 9.82877 3.29046 9.87923 3.59631 9.42262C4.85662 7.54016 6.15385 5.134 6.15385 2.82754C6.15385 2.5537 6.13539 2.05831 5.84615 1.558C5.55692 1.05708 4.912 0.615234 4.05785 0.615234ZM4.05785 1.846C4.55754 1.846 4.65846 1.98139 4.76923 2.17277C4.88 2.36477 4.92308 2.67 4.92308 2.82693C4.92308 4.64354 3.75877 6.95554 2.55754 8.75C2.312 9.11677 2.312 9.06631 2.07692 9.38446C2.06031 9.35985 2.03569 9.35185 2.01908 9.32662C1.56123 8.62323 1.28862 7.68354 1.28862 6.96108C1.28871 6.95493 1.28871 6.94877 1.28862 6.94262C1.25969 5.09954 1.80554 3.8257 2.44246 2.99985C3.07877 2.174 3.88431 1.846 4.05785 1.846ZM8.63446 4.942C8.64308 4.98754 8.66646 5.06877 8.63446 5.26877C8.55508 5.76354 8.23015 6.56908 7.73046 7.36539C7.59323 7.58385 7.37169 7.74693 7.21169 7.9617C7.19692 7.8337 7.13477 7.77462 7.13477 7.63431C7.13477 6.82816 7.36862 6.10016 7.69231 5.61523C8.00123 5.15123 8.35877 4.95985 8.63446 4.942ZM3.72529e-07 14.1537V15.3845H16V14.1537H3.72529e-07Z" fill="white"/>
</svg>
