<svg width="60" height="55" viewBox="0 0 60 55" fill="none" xmlns="http://www.w3.org/2000/svg">
<g clip-path="url(#clip0)">
<path d="M40.594 9C39.175 9 37.691 9.917 36.375 11.625C35.059 13.333 34.041 15.907 34.094 19.313C34.094 20.939 34.613 22.743 35.594 24.25C35.738 24.472 35.987 24.605 36.156 24.813C35.468 25.644 34.281 27.219 34.281 27.219C34.1745 27.3097 34.0882 27.4218 34.0278 27.548C33.9673 27.6742 33.934 27.8116 33.93 27.9515C33.926 28.0914 33.9514 28.2305 34.0045 28.3599C34.0576 28.4894 34.1373 28.6062 34.2385 28.7029C34.3396 28.7996 34.4599 28.874 34.5916 28.9213C34.7232 28.9686 34.8634 28.9877 35.0029 28.9775C35.1425 28.9672 35.2783 28.9278 35.4016 28.8617C35.525 28.7957 35.6331 28.7045 35.719 28.594C35.719 28.594 36.922 26.984 37.562 26.219C38.3 26.688 39.144 27 40.094 27C41.802 27 43.406 26.183 44.781 25.062C44.976 24.904 45.094 24.671 45.281 24.5C45.722 24.809 46.241 25 46.812 25C47.771 25 48.585 24.543 49.282 24C49.978 23.457 50.575 22.803 51.125 22.156C51.494 21.722 51.764 21.362 52.063 21C52.026 21.471 51.996 21.935 52 22.375C52.002 22.605 52.012 22.812 52.094 23.094C52.134 23.234 52.17 23.428 52.344 23.625C52.518 23.822 52.872 24 53.187 24C54.004 24 54.612 23.542 55.062 23.094C55.512 22.645 55.873 22.129 56.282 21.656C57.096 20.711 57.88 20 59 20C59.2652 20 59.5196 19.8946 59.7071 19.7071C59.8946 19.5196 60 19.2652 60 19C60 18.7348 59.8946 18.4804 59.7071 18.2929C59.5196 18.1054 59.2652 18 59 18C57.02 18 55.69 19.29 54.781 20.344C54.499 20.671 54.287 20.894 54.063 21.156C54.065 21.12 54.06 21.099 54.063 21.062C54.101 20.554 54.163 20.059 54.125 19.562C54.1149 19.2818 54.0511 19.0061 53.937 18.75C53.797 18.444 53.329 18 52.812 18C52.271 18 51.966 18.238 51.719 18.438C51.472 18.638 51.256 18.87 51.031 19.125C50.581 19.635 50.106 20.241 49.594 20.844C49.081 21.447 48.538 22.043 48.031 22.438C47.525 22.832 47.104 23 46.812 23C46.746 23 46.712 22.887 46.656 22.875C47.183 22.242 47.831 21.698 48.25 21.031C49.163 19.575 49.798 18.134 50 16.875C50.101 16.245 50.137 15.633 49.844 15.031C49.55 14.43 48.784 14 48.094 14C46.749 14 45.618 14.87 44.844 16.031C44.069 17.193 43.594 18.717 43.594 20.406C43.594 21.283 43.869 22.02 44.156 22.75C43.918 22.98 43.746 23.3 43.5 23.5C42.344 24.442 41.135 25 40.094 25C39.641 25 39.237 24.802 38.844 24.594C39.311 23.972 39.347 24.054 39.844 23.312C41.892 20.253 44 16.343 44 12.595C44 12.15 43.97 11.345 43.5 10.532C43.03 9.718 41.982 9 40.594 9ZM40.594 11C41.406 11 41.57 11.22 41.75 11.531C41.93 11.843 42 12.339 42 12.594C42 15.546 40.108 19.303 38.156 22.219C37.757 22.815 37.757 22.733 37.375 23.25C37.348 23.21 37.308 23.197 37.281 23.156C36.537 22.013 36.094 20.486 36.094 19.312C36.0941 19.302 36.0941 19.292 36.094 19.282C36.047 16.287 36.934 14.217 37.969 12.875C39.003 11.533 40.312 11 40.594 11ZM48.031 16.031C48.045 16.105 48.083 16.237 48.031 16.562C47.902 17.366 47.374 18.675 46.562 19.969C46.339 20.324 45.979 20.589 45.719 20.938C45.695 20.73 45.594 20.634 45.594 20.406C45.594 19.096 45.974 17.913 46.5 17.125C47.002 16.371 47.583 16.06 48.031 16.031ZM34 31V33H60V31H34Z" fill="#3284FF"/>
</g>
<path fill-rule="evenodd" clip-rule="evenodd" d="M27.027 0H0V50H27.027V0ZM22.2973 29.0541C23.4168 29.0541 24.3243 28.1465 24.3243 27.027C24.3243 25.9075 23.4168 25 22.2973 25C21.1778 25 20.2703 25.9075 20.2703 27.027C20.2703 28.1465 21.1778 29.0541 22.2973 29.0541Z" fill="#3284FF"/>
<path d="M23 42H24V41V39C24 37.8954 23.1046 37 22 37H9C7.89543 37 7 37.8954 7 39V41V42H8H23Z" fill="#3284FF" stroke="white" stroke-width="2"/>
<line x1="8" y1="42.5" x2="23" y2="42.5" stroke="white"/>
<rect x="8" y="42" width="15" height="12" fill="#3284FF" stroke="white" stroke-width="2"/>
<defs>
<clipPath id="clip0">
<rect width="26" height="26" fill="white" transform="translate(34 8)"/>
</clipPath>
</defs>
</svg>
