<svg width="22" height="22" viewBox="0 0 22 22" fill="none" xmlns="http://www.w3.org/2000/svg">
<path d="M2.60146 21.5C2.28265 21.4985 1.97744 21.3707 1.75275 21.1445C1.52806 20.9183 1.40224 20.6123 1.40286 20.2934C1.40565 20.1723 1.42457 20.052 1.45911 19.9358L2.32255 16.8125C2.35864 16.6972 2.31786 16.5809 2.26489 16.4891L2.25458 16.4703C2.25083 16.4642 2.23302 16.4394 2.22036 16.4211C2.20771 16.4028 2.19317 16.3831 2.18005 16.3639L2.17114 16.3513C1.0809 14.6988 0.49984 12.7627 0.50005 10.783C0.491613 8.08344 1.54771 5.53297 3.47474 3.59797C5.4688 1.60016 8.13599 0.500001 10.9916 0.500001C13.4141 0.498804 15.7648 1.3228 17.6563 2.83625C19.5055 4.32453 20.7908 6.39875 21.2755 8.68063C21.4247 9.37383 21.4998 10.0809 21.4996 10.79C21.4996 13.5523 20.4383 16.1469 18.5108 18.0964C16.5665 20.0652 13.9555 21.1461 11.1594 21.1461C10.175 21.1461 8.91552 20.8948 8.31083 20.7242C7.58333 20.5208 6.8938 20.2555 6.81786 20.2273C6.7375 20.1966 6.6522 20.1807 6.56614 20.1805C6.47281 20.1799 6.38033 20.1982 6.29427 20.2344L6.25442 20.2498L3.0913 21.3927C2.93594 21.4581 2.76992 21.4944 2.60146 21.5Z" fill="white"/>
</svg>
