<svg width="19" height="18" viewBox="0 0 19 18" fill="none" xmlns="http://www.w3.org/2000/svg">
<path d="M2.91699 3.26536H16.042C16.1953 3.26529 16.3485 3.27502 16.5005 3.29448C16.449 2.93263 16.3247 2.58497 16.1352 2.27245C15.9456 1.95994 15.6947 1.68904 15.3977 1.4761C15.1006 1.26316 14.7635 1.11258 14.4067 1.03345C14.0498 0.954312 13.6807 0.94826 13.3214 1.01566L2.52734 2.85849H2.51504C1.83749 2.98805 1.23497 3.3714 0.830527 3.93023C1.43985 3.49682 2.16925 3.2644 2.91699 3.26536ZM16.042 4.24974H2.91699C2.22103 4.2505 1.55379 4.5273 1.06168 5.01942C0.569558 5.51154 0.292752 6.17878 0.291992 6.87474V14.7497C0.292752 15.4457 0.569558 16.1129 1.06168 16.6051C1.55379 17.0972 2.22103 17.374 2.91699 17.3747H16.042C16.738 17.374 17.4052 17.0972 17.8973 16.6051C18.3894 16.1129 18.6662 15.4457 18.667 14.7497V6.87474C18.6662 6.17878 18.3894 5.51154 17.8973 5.01942C17.4052 4.5273 16.738 4.2505 16.042 4.24974ZM14.0938 12.1247C13.8342 12.1247 13.5804 12.0478 13.3646 11.9035C13.1487 11.7593 12.9805 11.5543 12.8812 11.3145C12.7818 11.0747 12.7558 10.8108 12.8065 10.5562C12.8571 10.3016 12.9821 10.0677 13.1657 9.88416C13.3492 9.7006 13.5831 9.5756 13.8377 9.52496C14.0923 9.47431 14.3562 9.50031 14.596 9.59965C14.8359 9.69899 15.0408 9.86721 15.1851 10.0831C15.3293 10.2989 15.4062 10.5526 15.4062 10.8122C15.4062 11.1603 15.268 11.4942 15.0218 11.7403C14.7757 11.9865 14.4418 12.1247 14.0938 12.1247Z" fill="#3284FF"/>
</svg>
